<?xml version="1.0" standalone="no"?>
<!DOCTYPE svg PUBLIC "-//W3C//DTD SVG 20010904//EN"
 "http://www.w3.org/TR/2001/REC-SVG-20010904/DTD/svg10.dtd">
<svg version="1.0" xmlns="http://www.w3.org/2000/svg"
 width="10.000000pt" height="14.000000pt" viewBox="0 0 10.000000 14.000000"
 preserveAspectRatio="xMidYMid meet">

<g transform="translate(0.000000,14.000000) scale(0.100000,-0.100000)"
fill="#000000" stroke="none">
<path d="M25 114 c-9 -9 -13 -19 -10 -22 3 -3 12 3 20 14 14 18 16 18 29 2 18
-24 29 -23 16 2 -13 24 -33 26 -55 4z"/>
<path d="M0 35 l0 -36 48 3 c45 3 47 4 47 33 0 29 -2 30 -47 33 l-48 3 0 -36z"/>
</g>
</svg>
